<svg width="11" height="16" viewBox="0 0 11 16" fill="none" xmlns="http://www.w3.org/2000/svg">
<path d="M4.49913 0.606012C4.23808 0.441506 3.90713 0.470539 3.67872 0.678609C3.44564 0.881831 3.37105 1.22056 3.49225 1.51088C4.30802 3.49967 4.09358 4.44806 3.89314 4.83517C3.67873 5.24164 3.33375 5.34808 3.19391 5.3723C2.81632 5.44486 2.53197 4.67066 2.52731 4.66581C2.43874 4.39484 2.201 4.20612 1.92598 4.18193C1.64627 4.16258 1.38989 4.3029 1.25472 4.55453C0.019405 6.89167 -0.306911 9.08369 0.289779 11.0773C1.16148 13.9999 3.71133 15.3645 3.81856 15.4226C3.91644 15.4758 4.02834 15.5 4.13088 15.5C4.30335 15.5 4.46652 15.4371 4.59703 15.3161C4.81147 15.1177 4.89071 14.8032 4.7928 14.5225C4.57839 13.9177 4.20081 12.166 4.98394 11.3095C5.46406 10.787 5.79971 10.3079 6.02812 9.89661C7.90206 12.9548 6.89982 13.9129 6.88119 13.937C6.87652 13.937 6.87652 13.9419 6.87186 13.9419C6.55488 14.1693 6.48027 14.6193 6.69472 14.9484C6.91382 15.2774 7.34267 15.3645 7.66433 15.1419C7.66433 15.1371 7.66899 15.1371 7.67363 15.1323C9.94382 13.4822 11.0626 11.5709 10.9973 9.44176C10.8575 4.69484 4.76017 0.770547 4.49913 0.606012Z" fill="#E06800"/>
</svg>
