<svg width="17" height="24" viewBox="0 0 17 24" fill="none" xmlns="http://www.w3.org/2000/svg">
<path d="M8.99912 19.77V22.8H13.1991C13.5291 22.8 13.7991 23.07 13.7991 23.4C13.7991 23.73 13.5291 24 13.1991 24H3.59912C3.26912 24 2.99912 23.73 2.99912 23.4C2.99912 23.07 3.26912 22.8 3.59912 22.8H7.79912V19.77C3.77912 19.47 0.599121 16.08 0.599121 12C0.599121 11.67 0.869121 11.4 1.19912 11.4C1.52912 11.4 1.79912 11.67 1.79912 12C1.79912 15.63 4.76912 18.6 8.39912 18.6C12.0291 18.6 14.9991 15.63 14.9991 12C14.9991 11.67 15.2691 11.4 15.5991 11.4C15.9291 11.4 16.1991 11.67 16.1991 12C16.1991 16.11 13.0191 19.47 8.99912 19.77ZM12.8991 4.5V12C12.8991 14.49 10.8891 16.5 8.39912 16.5C5.90912 16.5 3.89912 14.49 3.89912 12V4.5C3.89912 2.01 5.90912 0 8.39912 0C10.8891 0 12.8991 2.01 12.8991 4.5ZM11.6991 4.5C11.6991 2.67 10.2291 1.2 8.39912 1.2C6.56912 1.2 5.09912 2.67 5.09912 4.5V12C5.09912 13.83 6.56912 15.3 8.39912 15.3C10.2291 15.3 11.6991 13.83 11.6991 12V4.5Z" fill="#8D46F6"/>
</svg>
