<svg width="22" height="24" viewBox="0 0 22 24" fill="none" xmlns="http://www.w3.org/2000/svg">
<path d="M7.80372 14.5722L11.777 7.77441C12.0653 7.29669 12.53 6.95165 13.0706 6.81393C13.6113 6.67622 14.1844 6.75689 14.6661 7.0385C15.1478 7.32012 15.4993 7.78003 15.6445 8.31878C15.7898 8.85752 15.7171 9.43179 15.4423 9.91738L9.01491 20.9164C8.4466 21.8887 7.51533 22.5955 6.42595 22.8811C5.33658 23.1668 4.17834 23.0079 3.20603 22.4395C2.23373 21.8711 1.52701 20.9396 1.24133 19.8501C0.955661 18.7606 1.11444 17.6023 1.68275 16.6299L8.73639 4.56212C10.5116 1.52503 14.4126 0.502331 17.4495 2.27788C20.4863 4.05343 21.5092 7.95489 19.7339 10.9915L15.1359 18.8587" stroke="#8D46F6" stroke-width="1.2" stroke-miterlimit="10" stroke-linecap="round" stroke-linejoin="round"/>
</svg>
